<?xml version="1.0" encoding="utf-8"?>
<!-- Generator: Adobe Illustrator 27.0.0, SVG Export Plug-In . SVG Version: 6.00 Build 0)  -->
<svg version="1.1" id="Layer_1" xmlns="http://www.w3.org/2000/svg" xmlns:xlink="http://www.w3.org/1999/xlink" x="0px" y="0px"
	 viewBox="0 0 1000 1000" style="enable-background:new 0 0 1000 1000;" xml:space="preserve">
<style type="text/css">
	.st0{fill:#F05423;}
	.st1{fill:#F8C926;}
	.st2{fill:#64C6C2;}
	.st3{font-family:'Amarante-Regular';}
	.st4{font-size:29.4334px;}
	.st5{font-size:54.9285px;}
	.st6{fill:#FFFFFF;}
</style>
<g>
	<g>
		<path class="st0" d="M128.01,126.56c-1.3,4.11-1.78,7.66-1.99,10.03v0.66l-1.67-1.96c-9.54-11.18-8.24-27.99,2.94-37.55
			l59.09-50.58c11.18-9.54,27.99-8.24,37.55,2.94l1.47,1.72L180.45,97.1c-7.6-3.35-13.72-3.37-17.11-3.07
			C145.27,95.63,132.44,112.58,128.01,126.56z"/>
		<path class="st1" d="M198.78,144.61l-37.58,33.73l-13.69-15.99c7.5,0,13.22-1.69,16.96-3.19c15.7-6.29,29.86-22.63,29.03-40
			c-0.22-4.69-1.49-8.51-2.6-11.11l44.4-44.69l5.25,6.16l-36.33,38.34C196.47,120.57,198.78,144.61,198.78,144.61z"/>
		<path class="st2" d="M215.7,108.68l30.66-32.38l6.84,7.97l-30.46,30.56C213.12,118.24,215.7,108.68,215.7,108.68z"/>
		<path class="st2" d="M226.98,118.78l30.24-29.8l7.06,8.27l-29.9,28.84C224.21,129.43,226.98,118.78,226.98,118.78z"/>
		<path class="st2" d="M239.03,129.89l28.97-28.33l6.52,7.63c0.34,0.42,0.69,0.83,1.01,1.25l-28.26,26.81
			C237.7,141.59,239.03,129.89,239.03,129.89z"/>
		<path class="st2" d="M271.57,146.74l-59.09,50.55c-11.18,9.57-27.99,8.27-37.55-2.92l-1.67-1.94l34.39-37.85
			c20.85,2.65,34.07-3.75,34.07-3.75l36.89-35.12C283.27,126.19,280.75,138.89,271.57,146.74z"/>
	</g>
	<text transform="matrix(1 0 0 1 126.8684 244.8796)"><tspan x="0" y="0" class="st3 st4">GLAM YOUR</tspan><tspan x="18.1" y="35.32" class="st3 st4">KITCHEN</tspan></text>
</g>
<g>
	<g>
		<path class="st0" d="M383.68,168.69c-1.3,4.11-1.78,7.66-1.99,10.03v0.66l-1.67-1.96c-9.54-11.18-8.24-27.99,2.94-37.55
			l59.09-50.58c11.18-9.54,27.99-8.24,37.55,2.94l1.47,1.72l-44.96,45.28c-7.6-3.35-13.72-3.37-17.11-3.07
			C400.94,137.76,388.11,154.71,383.68,168.69z"/>
		<path class="st1" d="M454.45,186.74l-37.58,33.73l-13.69-15.99c7.5,0,13.22-1.69,16.96-3.19c15.7-6.29,29.86-22.63,29.03-40
			c-0.22-4.69-1.49-8.51-2.6-11.11l44.4-44.69l5.25,6.16l-36.33,38.34C452.14,162.7,454.45,186.74,454.45,186.74z"/>
		<path class="st2" d="M471.37,150.81l30.66-32.38l6.84,7.97l-30.46,30.56C468.8,160.37,471.37,150.81,471.37,150.81z"/>
		<path class="st2" d="M482.65,160.91l30.24-29.8l7.06,8.27l-29.9,28.84C479.88,171.56,482.65,160.91,482.65,160.91z"/>
		<path class="st2" d="M494.7,172.02l28.97-28.33l6.52,7.63c0.34,0.42,0.69,0.83,1.01,1.25l-28.26,26.81
			C493.37,183.72,494.7,172.02,494.7,172.02z"/>
		<path class="st2" d="M527.25,188.87l-59.09,50.55c-11.18,9.57-27.99,8.27-37.55-2.92l-1.67-1.94l34.39-37.85
			c20.85,2.65,34.07-3.75,34.07-3.75l36.89-35.12C538.95,168.32,536.42,181.03,527.25,188.87z"/>
	</g>
	<text transform="matrix(1 0 0 1 564.9822 152.7351)"><tspan x="0" y="0" class="st3 st5">GLAM YOUR</tspan><tspan x="33.78" y="65.91" class="st3 st5">KITCHEN</tspan></text>
</g>
<rect x="54.74" y="326.17" width="297.14" height="297.14"/>
<rect x="428.9" y="357.49" width="531.27" height="261.58"/>
<g>
	<g>
		<path class="st0" d="M118.11,436.93c-1.3,4.11-1.78,7.66-1.99,10.03v0.66l-1.67-1.96c-9.54-11.18-8.24-27.99,2.94-37.55
			l59.09-50.58c11.18-9.54,27.99-8.24,37.55,2.94l1.47,1.72l-44.96,45.28c-7.6-3.35-13.72-3.37-17.11-3.07
			C135.36,405.99,122.53,422.95,118.11,436.93z"/>
		<path class="st1" d="M188.87,454.98l-37.58,33.73l-13.69-15.99c7.5,0,13.22-1.69,16.96-3.19c15.7-6.29,29.86-22.63,29.03-40
			c-0.22-4.69-1.49-8.51-2.6-11.11l44.4-44.69l5.25,6.16l-36.33,38.34C186.56,430.94,188.87,454.98,188.87,454.98z"/>
		<path class="st2" d="M205.79,419.04l30.66-32.38l6.84,7.97l-30.46,30.56C203.22,428.61,205.79,419.04,205.79,419.04z"/>
		<path class="st2" d="M217.08,429.15l30.24-29.8l7.06,8.27l-29.9,28.84C214.31,439.79,217.08,429.15,217.08,429.15z"/>
		<path class="st2" d="M229.12,440.26l28.97-28.33l6.52,7.63c0.34,0.42,0.69,0.83,1.01,1.25l-28.26,26.81
			C227.8,451.96,229.12,440.26,229.12,440.26z"/>
		<path class="st2" d="M261.67,457.11l-59.09,50.55c-11.18,9.57-27.99,8.27-37.55-2.92l-1.67-1.94l34.39-37.85
			c20.85,2.65,34.07-3.75,34.07-3.75l36.89-35.12C273.37,436.56,270.84,449.26,261.67,457.11z"/>
	</g>
	<text transform="matrix(1 0 0 1 116.9622 555.2478)"><tspan x="0" y="0" class="st6 st3 st4">GLAM YOUR</tspan><tspan x="18.1" y="35.32" class="st6 st3 st4">KITCHEN</tspan></text>
</g>
<g>
	<g>
		<path class="st0" d="M471.19,492.6c-1.3,4.11-1.78,7.66-1.99,10.03v0.66l-1.67-1.96c-9.54-11.18-8.24-27.99,2.94-37.55
			l59.09-50.58c11.18-9.54,27.99-8.24,37.55,2.94l1.47,1.72l-44.96,45.28c-7.6-3.35-13.72-3.37-17.11-3.07
			C488.44,461.66,475.61,478.62,471.19,492.6z"/>
		<path class="st1" d="M541.95,510.65l-37.58,33.73l-13.69-15.99c7.5,0,13.22-1.69,16.96-3.19c15.7-6.29,29.86-22.63,29.03-40
			c-0.22-4.69-1.49-8.51-2.6-11.11l44.4-44.69l5.25,6.16l-36.33,38.34C539.65,486.61,541.95,510.65,541.95,510.65z"/>
		<path class="st2" d="M558.88,474.71l30.66-32.38l6.84,7.97l-30.46,30.56C556.3,484.28,558.88,474.71,558.88,474.71z"/>
		<path class="st2" d="M570.16,484.82l30.24-29.8l7.06,8.27l-29.9,28.84C567.39,495.47,570.16,484.82,570.16,484.82z"/>
		<path class="st2" d="M582.2,495.93l28.97-28.33l6.52,7.63c0.34,0.42,0.69,0.83,1.01,1.25l-28.26,26.81
			C580.88,507.63,582.2,495.93,582.2,495.93z"/>
		<path class="st2" d="M614.75,512.78l-59.09,50.55c-11.18,9.57-27.99,8.27-37.55-2.92l-1.67-1.94l34.39-37.85
			c20.85,2.65,34.07-3.75,34.07-3.75l36.89-35.12C626.45,492.23,623.92,504.93,614.75,512.78z"/>
	</g>
	<text transform="matrix(1 0 0 1 652.4861 476.6423)"><tspan x="0" y="0" class="st6 st3 st5">GLAM YOUR</tspan><tspan x="33.78" y="65.91" class="st6 st3 st5">KITCHEN</tspan></text>
</g>
<g>
	<path class="st0" d="M378.27,837.29c-1.3,4.11-1.78,7.66-1.99,10.03v0.66l-1.67-1.96c-9.54-11.18-8.24-27.99,2.94-37.55
		l59.09-50.58c11.18-9.54,27.99-8.24,37.55,2.94l1.47,1.72l-44.96,45.28c-7.6-3.35-13.72-3.37-17.11-3.07
		C395.53,806.36,382.7,823.31,378.27,837.29z"/>
	<path class="st1" d="M449.04,855.34l-37.58,33.73l-13.69-15.99c7.5,0,13.22-1.69,16.96-3.19c15.7-6.29,29.86-22.63,29.03-40
		c-0.22-4.69-1.49-8.51-2.6-11.11l44.4-44.69l5.25,6.16l-36.33,38.34C446.73,831.3,449.04,855.34,449.04,855.34z"/>
	<path class="st2" d="M465.96,819.41l30.66-32.38l6.84,7.97L473,825.56C463.39,828.97,465.96,819.41,465.96,819.41z"/>
	<path class="st2" d="M477.25,829.51l30.24-29.8l7.06,8.27l-29.9,28.84C474.47,840.16,477.25,829.51,477.25,829.51z"/>
	<path class="st2" d="M489.29,840.62l28.97-28.33l6.52,7.63c0.34,0.42,0.69,0.83,1.01,1.25l-28.26,26.81
		C487.96,852.32,489.29,840.62,489.29,840.62z"/>
	<path class="st2" d="M521.84,857.48l-59.09,50.55c-11.18,9.57-27.99,8.27-37.55-2.92l-1.67-1.94l34.39-37.85
		c20.85,2.65,34.07-3.75,34.07-3.75l36.89-35.12C533.54,836.92,531.01,849.63,521.84,857.48z"/>
</g>
</svg>
